<svg xmlns="http://www.w3.org/2000/svg" width="1024" height="1024"><path fill="#efece4" fill-rule="evenodd" d="M844.491 400.5c0 118.25.116 166.773.259 107.83.142-58.944.142-155.694 0-215-.143-59.307-.259-11.08-.259 107.17M846 498c0 59.583.233 108.1.518 107.816.659-.66.633-214.998-.027-215.658-.27-.27-.491 48.259-.491 107.842m-387.518 51.5c0 58.3.12 82.297.268 53.327.147-28.971.147-76.671 0-106-.147-29.33-.268-5.627-.268 52.673M321.231 445.725c-1.798.222-3.078.713-2.845 1.09.232.377-.772.764-2.231.861-6.784.451-8.916.894-8.393 1.744.312.506-.152.644-1.029.308-1.171-.45-1.499-.111-1.233 1.272.247 1.282-.082 1.714-1.029 1.351-.983-.378-1.272.088-.984 1.584.23 1.193-.013 1.858-.556 1.523-.53-.328-.734-.968-.453-1.422.281-.455-.261-1.122-1.203-1.484-.943-.362-1.394-.338-1.003.053.815.815-1.049 3.395-2.453 3.395-.516 0-.616-.52-.224-1.155.446-.721.274-.882-.457-.43-.644.398-.954 1.073-.69 1.501.531.858-4.76 6.288-6.105 6.265-.463-.008-1.068.211-1.343.486-.275.275-.05.409.5.298 2.773-.56 3.761.266 1.5 1.255-1.375.601-2.749 1.052-3.053 1.002-.304-.05-.461 1.229-.35 2.841.112 1.612-.126 2.728-.528 2.48-1.222-.755-5.024 11.482-6.046 19.457-1.26 9.829-1.299 111.745-.046 119.395 1.63 9.952 4.035 17.179 5.169 15.534.714-1.036.8-.776.312.946-.434 1.533-.304 2.148.366 1.734.571-.353 1.363-.115 1.761.529.426.689.293.904-.324.523-.632-.39-.991.31-.905 1.762.079 1.325.594 2.335 1.144 2.243.55-.091.938.617.863 1.573-.075.957.211 1.524.637 1.261.425-.263 1.325.187 2 1s1.695 1.188 2.268.834c.572-.353.76-.189.417.366-.343.555.474 2.04 1.815 3.3 1.341 1.26 2.22 2.644 1.953 3.076-.267.432.041 1.111.685 1.509.69.427.904.292.522-.326-.357-.577.047-1.316.898-1.643.901-.346 1.286-.173.923.415-1.047 1.693 12.216 7.267 17.545 7.374 2.622.052 4.56.435 4.308.851-.533.876 56.359.964 61.84.095 2.021-.32 3.557-1.093 3.414-1.717-.143-.624-.071-.797.159-.384.715 1.277 3.962.835 9.289-1.264 2.81-1.108 5.596-1.713 6.191-1.346.627.388.795.204.4-.435-.861-1.392 2.991-3.541 4.644-2.591.676.389.895.338.488-.112-.408-.45-.183-1.534.5-2.41l1.241-1.592-2 1.5-2 1.5 1.355-1.729c.994-1.268 1.826-1.477 3.124-.782 1.34.717 2.225.412 3.645-1.254l1.876-2.201-1.75 1.356c-2.588 2.003-2.126-.189.574-2.725 1.278-1.201 2.701-1.842 3.161-1.424.459.417.522.213.139-.454-.382-.666.496-3.563 1.951-6.436 1.456-2.873 2.71-6.894 2.786-8.934.077-2.041.417-3.543.756-3.337 1.011.612 1.883-8.169 1.884-18.97l.001-10.11-20.751.289-20.751.288-.071 6.712c-.091 8.568-1.208 14.466-2.579 13.618-.721-.445-.716-.026.014 1.339l1.064 1.987-2.214-.116c-1.309-.069-2.108.405-1.955 1.161.143.703-.457 1.553-1.334 1.889l-1.593.611 1.273.787c.699.432-8.87.751-21.265.708-12.396-.043-23.168.302-23.939.766l-1.401.845 1.276-1.575 1.275-1.575-1.589-.61c-.874-.336-1.328-1.032-1.009-1.548.319-.516.111-1.227-.461-1.581-.573-.354-.977-.273-.898.181.473 2.727-.376 2.295-2.344-1.191l-2.25-3.985-.283-54.072-.282-54.072 1.336-3.928c.735-2.16 1.822-3.833 2.415-3.717.593.116 1.019-.521.946-1.414-.072-.894 1.443-2.563 3.368-3.711l3.5-2.086h38l3.5 1.958c1.925 1.077 3.8 1.977 4.167 2 .366.023 1.041.452 1.5.952.484.529.309.609-.417.191-1.533-.882-1.539-.987.221 3.899.793 2.2 1.461 7.245 1.485 11.211l.044 7.212 21.001.288 21.001.289-.007-8.5c-.01-12.206-3.751-31.887-5.819-30.609-.411.254-.844-.405-.962-1.464l-.428-3.856c-.118-1.06-.624-1.848-1.125-1.75-.501.099-1.138-.446-1.416-1.21-.338-.932-.082-1.128.78-.596.848.525 1.038.397.56-.377-.398-.644-1.069-.957-1.492-.696-.975.603-8.337-6.865-7.547-7.655.323-.323-.23-.52-1.229-.437-.999.083-1.71-.396-1.579-1.064.147-.749-.395-.971-1.414-.58-1.197.459-1.427.269-.834-.691.56-.904.434-1.086-.396-.573-1.612.996-7.248-1.383-6.427-2.713.358-.578.161-.741-.444-.367-.598.37-5.002-.011-9.786-.845-8.193-1.429-56.406-2.006-66.206-.792M460 549v104h129v-38h-84v-48h68v-36.682l-30.769-.159c-16.923-.088-32.335-.159-34.25-.159l-3.481-.001v-25.003c0-13.751.15-24.551.333-23.999.216.65 15.265 1.003 42.75 1.003H590v-37H460v104m244-25.649c0 75.826-.353 85.785-2.985 84.159-.434-.269-.727.294-.652 1.251.075.956-.398 1.636-1.052 1.509-.679-.131-1.03.592-.819 1.686.202 1.053-.362 2.507-1.254 3.23l-1.622 1.314.79-1.314.791-1.314-3.849.814c-10.873 2.299-35.72.342-33.86-2.667.3-.484.018-1.206-.626-1.604-.731-.452-.903-.291-.457.43.392.635.333 1.155-.13 1.155-2.426 0-4.59-6.699-5.059-15.654l-.489-9.346h-39.73l.525 12.25c.288 6.737.985 14.846 1.549 18.019.563 3.173.708 6.28.322 6.904-.414.67-.258.862.38.467.596-.368 1.373.244 1.727 1.36.354 1.116 1.056 1.774 1.561 1.463.505-.313.621.203.258 1.149-.444 1.157-.281 1.483.5 1 .744-.46.956-.188.592.759-.337.878.281 1.929 1.524 2.594l2.09 1.119-1.112 2.079c-.612 1.143-.678 1.81-.146 1.481.531-.328 1.761.282 2.733 1.356.972 1.074 2.227 1.669 2.788 1.322.562-.347.719-.143.35.454s-.206 1.373.362 1.724.805 1.006.527 1.456c-.278.45.277.756 1.234.681.962-.076 1.616.455 1.464 1.187-.151.729.171 1.049.716.713.545-.337 2.693.247 4.775 1.297 2.081 1.05 6.768 2.65 10.415 3.555l6.632 1.645 24.469.004c13.928.003 26.663-.465 29.56-1.087l5.091-1.092-.536-1.679-.536-1.68 1.04 1.471 1.04 1.47 3.549-1.283c1.951-.706 4.07-.961 4.709-.566.774.478.888.276.341-.607-.599-.97-.358-1.149.898-.666 1.026.393 1.468.258 1.101-.338-.339-.547.059-1.254.884-1.571.914-.35 1.254-1.227.87-2.243l-.631-1.667 1.775 1.759c1.668 1.654 4.209 1.514 3.165-.175-.491-.795 4.778-6.358 5.855-6.182 1.502.247 1.595-.029.623-1.846l-1.04-1.943 2.032.391c1.117.215 1.81.033 1.539-.406-.271-.438.806-3.902 2.395-7.698 4.792-11.449 5.044-16.526 5.044-101.472V445h-44v78.351"/><path fill="#fec914" fill-rule="evenodd" d="M323.796 189.946c-1.377 1.083-4.116 5.026-6.087 8.762-1.971 3.735-7.887 14.439-13.146 23.785-13.093 23.265-14.919 18.973 20.386 47.903 29.077 23.827 23.904 24.785 41.273-7.646 33.794-63.102 37.878-70.991 37.572-72.581l-.321-1.669-38.587-.262-38.587-.261-2.503 1.969m97.4.629c-1.237.867-3.986 5.029-6.109 9.25-3.439 6.841-15.775 30.009-41.696 78.311-9.402 17.521-10.112 20.6-5.641 24.482 42.312 36.732 58.806 43.37 107.788 43.376l42.038.006 4.462-2.25c4.883-2.462 4.956-2.571 17.661-26.25 4.132-7.7 11.097-20.448 15.479-28.329 4.381-7.881 8.61-16.153 9.397-18.383l1.43-4.055-1.03-4.116-1.031-4.117-27.722-27.331c-15.247-15.032-29.609-28.447-31.916-29.812l-4.193-2.481-34.242-4.938c-37.473-5.404-41.345-5.695-44.675-3.363m173.133 45.863c-5.455 2.407-5.301.11-5.345 79.723l-.04 74.339 7.528.292c4.14.161 7.536-.064 7.545-.5 1.201-54.764 82.21-60.221 89.536-6.032.315 2.332.778 5.252 1.029 6.49l.456 2.25h13.781c16.927 0 16.181.605 16.181-13.137v-10.736l-3.25-.314-3.25-.313-.5-26.5-.5-26.5-21.5-35.84c-11.825-19.712-23.136-37.712-25.135-40l-3.634-4.16-34.866-.23-34.865-.231-3.171 1.399m15.338 17.229c-1.278 1.278-.769 56.831.533 58.133 1.577 1.577 82.347 1.742 83.318.17.716-1.158.645-1.286-19.184-34.72L659.952 253h-24.809c-13.645 0-25.11.3-25.476.667m-40.873 36.532c-5.239 8.019-27.724 51.821-27.244 53.071.808 2.105 4.94 2.73 18.04 2.73h11.34l.965-1.804c2.819-5.267-.232-58.39-3.101-53.997m-234.045 7.385c-1.57 1.57-16.081 79.667-15.093 81.232l1.062 1.684H336.223l2.179-7.5c4.168-14.35 12.877-26.896 24.688-35.566l4.91-3.604v-5.693c0-7.498-.486-8.075-16.694-19.817-15.649-11.339-15.834-11.459-16.557-10.736m41.16 47.255c-10.626 3.509-20.921 12.619-25.608 22.661l-2.801 6v21l3.716 7.781c4.561 9.553 11.206 16.325 20.518 20.909l6.724 3.31H398.5l6.723-3.185c32.73-15.505 32.771-61.256.068-76.56l-6.756-3.161-8.518-.301c-6.25-.221-10.005.191-14.108 1.546m261.487 14.522c-8.91 2.913-16.356 9.902-20.674 19.406l-2.151 4.733v17l2.234 4.92c12.711 28.004 49.98 29.229 63.251 2.08l2.444-5v-19.03l-3.292-6.693c-7.308-14.859-25.921-22.612-41.812-17.416M437 359.763c0 .144.897 3.5 1.994 7.458 1.097 3.957 2.286 10.702 2.644 14.987.357 4.286.922 7.796 1.256 7.8 23.792.333 128.412-.079 129.107-.509 1.553-.959 1.314-28.447-.251-29.018-1.294-.473-134.751-1.184-134.75-.718m-55.595 10.094c-8.49 3.953-11.67 15.704-6.369 23.533 8.603 12.706 27.258 8.017 28.722-7.219l.478-4.979-2.33-4.145c-4.301-7.653-12.975-10.695-20.501-7.19m260.146 10.039c-11.306 7.685-6.436 26.104 6.903 26.104 8.007 0 13.536-5.833 13.542-14.289l.004-4.788-3.815-4.091-3.816-4.09-4.934-.425-4.935-.425-2.949 2.004M299.344 682.013c-29.122 5.963-31.097 51.005-2.59 59.049 9.844 2.777 23.774-.401 29.403-6.708l1.654-1.854-3.868-4.466-3.869-4.465-2.891 2.138c-9.076 6.71-21.002 4.308-25.269-5.09-4.226-9.306-1.05-20.253 7.086-24.424l4.5-2.306 4 .6c2.2.33 5.716 1.731 7.814 3.113l3.814 2.513 3.895-4.306c4.749-5.251 4.728-4.997.663-8.097-6.751-5.149-16.209-7.363-24.342-5.697m55.459.331c-31.973 8.982-27.296 57.32 5.751 59.441 19.557 1.255 32.322-11.88 31.257-32.164l-.428-8.146-2.941-5.408c-6.18-11.361-20.806-17.328-33.639-13.723m129.148-.039c-25.141 7.097-28.75 44.81-5.451 56.955 14.927 7.781 40.619-1.229 32.25-11.309-3.765-4.535-4.086-4.619-7.473-1.954-15.379 12.097-33.964-6.825-23.978-24.412 4.808-8.468 19.675-10.352 25.573-3.24 1.971 2.376 2.475 2.157 6.57-2.839l3.683-4.495-2.813-2.569c-6.563-5.996-19.186-8.728-28.361-6.137m223.489-.426c-27.068 6.997-31.556 44.145-6.94 57.453l4 2.162h19l4.134-2.208c5.866-3.134 10.299-7.909 13.255-14.28l2.555-5.506-.014-8c-.035-19.81-17.699-34.349-35.99-29.621M402 711.5V741h13.954l.273-17.529.273-17.529 12.5 17.475 12.5 17.475 6.25.054L454 741v-59H439.911l.294 17.501c.162 9.626.07 17.494-.205 17.485-.275-.009-6.125-7.868-13-17.466l-12.5-17.449-6.25-.036L402 682v29.5m123.5-.064V741H539v-20.081l4.042.238c4.725.279 4.974.534 10.923 11.201l4.542 8.142 7.712.291 7.713.292-6.376-10.757-6.376-10.757 2.771-1.686c1.525-.927 3.847-3.192 5.16-5.034l2.389-3.349v-15.314l-3.064-3.843c-1.686-2.114-4.836-4.743-7-5.843l-3.936-2-16-.314-16-.314v29.564m58.5.064V741h40v-11h-26v-13h22v-11h-22v-12h26v-12h-40v29.5m50-23.5v6h17v47h13v-47h16v-12h-46v6m-279.01 8.25c-16.022 10.904-6.286 37.677 11.919 32.775 10.398-2.8 15.246-17.664 9.071-27.817-4.327-7.116-14.343-9.482-20.99-4.958M539 702.109v8.11l7.609-.385 7.608-.384 1.892-2.336c2.81-3.471 2.471-8.513-.744-11.041L552.73 694H539v8.109m166.898-5.851c-1.869 1.242-4.443 4.28-5.721 6.75l-2.322 4.492.471 5.673c.843 10.16 6.694 16.212 15.674 16.212s14.831-6.052 15.674-16.212l.471-5.673-2.322-4.492C724.742 697.049 720.062 694 714 694c-3.214 0-5.781.716-8.102 2.258"/><path fill="#043369" fill-rule="evenodd" d="M484.5 90.737c-14.85 4.613-54.675 16.951-88.5 27.417-139.199 43.07-215.543 67.153-216.257 68.217-.416.621-.614 99.454-.439 219.629l.317 218.5 1.749 12c12.339 84.661 51.895 133.311 175.13 215.391C407.371 885.774 504.54 942 512.224 942c4.926 0 73.673-38 111.276-61.508 156.214-97.66 208.509-156.469 219.017-246.301L844 621.512V185.058l-9.75-2.99C764.293 160.615 637.737 121.496 560 97.297c-23.925-7.447-44.625-13.858-46-14.245-1.783-.501-10.246 1.703-29.5 7.685m-160.704 99.209c-1.377 1.083-4.116 5.026-6.087 8.762-1.971 3.735-7.887 14.439-13.146 23.785-13.093 23.265-14.919 18.973 20.386 47.903 29.077 23.827 23.904 24.785 41.273-7.646 33.794-63.102 37.878-70.991 37.572-72.581l-.321-1.669-38.587-.262-38.587-.261-2.503 1.969m97.4.629c-1.237.867-3.986 5.029-6.109 9.25-3.439 6.841-15.775 30.009-41.696 78.311-9.402 17.521-10.112 20.6-5.641 24.482 42.312 36.732 58.806 43.37 107.788 43.376l42.038.006 4.462-2.25c4.883-2.462 4.956-2.571 17.661-26.25 4.132-7.7 11.097-20.448 15.479-28.329 4.381-7.881 8.61-16.153 9.397-18.383l1.43-4.055-1.03-4.116-1.031-4.117-27.722-27.331c-15.247-15.032-29.609-28.447-31.916-29.812l-4.193-2.481-34.242-4.938c-37.473-5.404-41.345-5.695-44.675-3.363m173.133 45.863c-5.455 2.407-5.301.11-5.345 79.723l-.04 74.339 7.528.292c4.14.161 7.536-.064 7.545-.5 1.201-54.764 82.21-60.221 89.536-6.032.315 2.332.778 5.252 1.029 6.49l.456 2.25h13.781c16.927 0 16.181.605 16.181-13.137v-10.736l-3.25-.314-3.25-.313-.5-26.5-.5-26.5-21.5-35.84c-11.825-19.712-23.136-37.712-25.135-40l-3.634-4.16-34.866-.23-34.865-.231-3.171 1.399m15.338 17.229c-1.278 1.278-.769 56.831.533 58.133 1.577 1.577 82.347 1.742 83.318.17.716-1.158.645-1.286-19.184-34.72L659.952 253h-24.809c-13.645 0-25.11.3-25.476.667m-40.873 36.532c-5.239 8.019-27.724 51.821-27.244 53.071.808 2.105 4.94 2.73 18.04 2.73h11.34l.965-1.804c2.819-5.267-.232-58.39-3.101-53.997m-234.045 7.385c-1.57 1.57-16.081 79.667-15.093 81.232l1.062 1.684H336.223l2.179-7.5c4.168-14.35 12.877-26.896 24.688-35.566l4.91-3.604v-5.693c0-7.498-.486-8.075-16.694-19.817-15.649-11.339-15.834-11.459-16.557-10.736m41.16 47.255c-10.626 3.509-20.921 12.619-25.608 22.661l-2.801 6v21l3.716 7.781c4.561 9.553 11.206 16.325 20.518 20.909l6.724 3.31H398.5l6.723-3.185c32.73-15.505 32.771-61.256.068-76.56l-6.756-3.161-8.518-.301c-6.25-.221-10.005.191-14.108 1.546m261.487 14.522c-8.91 2.913-16.356 9.902-20.674 19.406l-2.151 4.733v17l2.234 4.92c12.711 28.004 49.98 29.229 63.251 2.08l2.444-5v-19.03l-3.292-6.693c-7.308-14.859-25.921-22.612-41.812-17.416M437 359.763c0 .144.897 3.5 1.994 7.458 1.097 3.957 2.286 10.702 2.644 14.987.357 4.286.922 7.796 1.256 7.8 23.792.333 128.412-.079 129.107-.509 1.553-.959 1.314-28.447-.251-29.018-1.294-.473-134.751-1.184-134.75-.718m-55.595 10.094c-8.49 3.953-11.67 15.704-6.369 23.533 8.603 12.706 27.258 8.017 28.722-7.219l.478-4.979-2.33-4.145c-4.301-7.653-12.975-10.695-20.501-7.19m260.146 10.039c-11.306 7.685-6.436 26.104 6.903 26.104 8.007 0 13.536-5.833 13.542-14.289l.004-4.788-3.815-4.091-3.816-4.09-4.934-.425-4.935-.425-2.949 2.004m-322.042 64.679c-20.396 4.048-34.674 18.297-39.005 38.925l-1.469 7-.003 59.5-.002 59.5 1.49 6.324c4.196 17.796 15.199 30.094 32.518 36.344l6.462 2.332h66l6.5-1.834c25.315-7.144 35.733-22.449 36.059-52.977l.152-14.189-21.991-.269-21.992-.269-.388 10.478-.387 10.477-2.073 2.791c-3.637 4.899-5.424 5.263-25.88 5.263-20.937 0-22.49-.349-26.22-5.883l-2.28-3.384V494.92l1.95-3.822c1.222-2.395 3.3-4.463 5.564-5.537l3.613-1.715 18.687.327 18.686.327 2.25 1.491c3.575 2.368 5.342 7.418 5.966 17.053l.58 8.956 22.102.001 22.102.002-.595-14.752-.596-14.751-2.236-6.462c-6.934-20.032-19.954-29.488-44.073-32.01-14.115-1.476-53.043-1.129-61.491.547M458 549.5V655h132v-41h-84v-46h69v-39h-69v-45h85v-40H458v105.5m243.998-25.75-.001 79.75-1.749 3.5c-1 2.002-3.246 4.248-5.248 5.248l-3.5 1.749h-26l-3.5-1.749c-5.302-2.648-6.997-7.007-6.998-17.998L655 585h-43l.017 12.75c.06 43.905 15.458 56.757 67.983 56.743l26.5-.008 6.5-1.827c18.553-5.214 30.087-17.201 34.48-35.834l1.49-6.324.015-83.25L749 444h-47l-.002 79.75M299.344 682.013c-29.122 5.963-31.097 51.005-2.59 59.049 9.844 2.777 23.774-.401 29.403-6.708l1.654-1.854-3.868-4.466-3.869-4.465-2.891 2.138c-9.076 6.71-21.002 4.308-25.269-5.09-4.226-9.306-1.05-20.253 7.086-24.424l4.5-2.306 4 .6c2.2.33 5.716 1.731 7.814 3.113l3.814 2.513 3.895-4.306c4.749-5.251 4.728-4.997.663-8.097-6.751-5.149-16.209-7.363-24.342-5.697m55.459.331c-31.973 8.982-27.296 57.32 5.751 59.441 19.557 1.255 32.322-11.88 31.257-32.164l-.428-8.146-2.941-5.408c-6.18-11.361-20.806-17.328-33.639-13.723m129.148-.039c-25.141 7.097-28.75 44.81-5.451 56.955 14.927 7.781 40.619-1.229 32.25-11.309-3.765-4.535-4.086-4.619-7.473-1.954-15.379 12.097-33.964-6.825-23.978-24.412 4.808-8.468 19.675-10.352 25.573-3.24 1.971 2.376 2.475 2.157 6.57-2.839l3.683-4.495-2.813-2.569c-6.563-5.996-19.186-8.728-28.361-6.137m223.489-.426c-27.068 6.997-31.556 44.145-6.94 57.453l4 2.162h19l4.134-2.208c5.866-3.134 10.299-7.909 13.255-14.28l2.555-5.506-.014-8c-.035-19.81-17.699-34.349-35.99-29.621M402 711.5V741h13.954l.273-17.529.273-17.529 12.5 17.475 12.5 17.475 6.25.054L454 741v-59H439.911l.294 17.501c.162 9.626.07 17.494-.205 17.485-.275-.009-6.125-7.868-13-17.466l-12.5-17.449-6.25-.036L402 682v29.5m123.5-.064V741H539v-20.081l4.042.238c4.725.279 4.974.534 10.923 11.201l4.542 8.142 7.712.291 7.713.292-6.376-10.757-6.376-10.757 2.771-1.686c1.525-.927 3.847-3.192 5.16-5.034l2.389-3.349v-15.314l-3.064-3.843c-1.686-2.114-4.836-4.743-7-5.843l-3.936-2-16-.314-16-.314v29.564m58.5.064V741h40v-11h-26v-13h22v-11h-22v-12h26v-12h-40v29.5m50-23.5v6h17v47h13v-47h16v-12h-46v6m-279.01 8.25c-16.022 10.904-6.286 37.677 11.919 32.775 10.398-2.8 15.246-17.664 9.071-27.817-4.327-7.116-14.343-9.482-20.99-4.958M539 702.109v8.11l7.609-.385 7.608-.384 1.892-2.336c2.81-3.471 2.471-8.513-.744-11.041L552.73 694H539v8.109m166.898-5.851c-1.869 1.242-4.443 4.28-5.721 6.75l-2.322 4.492.471 5.673c.843 10.16 6.694 16.212 15.674 16.212s14.831-6.052 15.674-16.212l.471-5.673-2.322-4.492C724.742 697.049 720.062 694 714 694c-3.214 0-5.781.716-8.102 2.258"/></svg>