<svg xmlns="http://www.w3.org/2000/svg" viewBox="0 0 1871.8165 1933.7462">
  <path fill="#193f6e" d="M950.89765 8.9433536 14.749207 193.57227H9.3781072v999.04683h.035l-.3047 9.0488 3.3085998 16.5411 1.6543 19.8476 8.2695 28.9473 16.5411 37.2148 13.232402 26.4649 19.0215 24.8105 32.253901 39.6973 54.584 55.4121 43.832 40.5234 134.8066 98.416 112.4746 76.086 133.9786 81.0488 125.707 72.7774 234.875 119.0917 28.11914-13.2324 135.63275-66.1601 150.5176-82.7032 129.0176-76.0859 160.4414-102.5527 117.9551-90.1446 13.6465-11.373 11.5781-9.9238 14.2656-11.5782 7.7539-6.9257 9.0977-8.4766 13.748-13.2324 12.6133-12.1992 20.5723-20.7793 11.0605-11.7852 10.5449-11.4746 12.4063-14.9902 12.1972-15.92 18.1954-25.8437 12.0957-19.4356 14.2656-28.2226 5.6855-13.8535 4.4453-13.0254 2.8946-9.8203 1.9648-8.9942 2.584-13.9551.7246-9.5117.7227-11.3711.9297-12.3027-493.9375-.055h493.9863V194.69502l-5.6172-1.12305z"/>
  <path fill="#fff" d="M950.47762 69.762036 73.34185 242.752406h-5.0325v936.06942h.033l-.2855 8.4784 3.1 15.4984 1.55 18.5965 7.7483 27.1225 15.4984 34.8689 12.3982 24.7966 17.8224 23.2465 30.2207 37.1949 51.14319 51.919 41.0689 37.9689 126.3088 92.2121 105.3844 71.2898 125.533 75.9396 117.7827 68.1897 220.06898 111.5845 26.3465-12.3983 127.0829-61.9895 141.0293-77.4898 120.8846-71.2896 150.3276-96.0881 110.5195-84.4621 12.7863-10.656 10.8482-9.2983 13.3664-10.8483 7.2651-6.4891 8.5242-7.9423 12.8813-12.3983 11.8182-11.4301 19.2755-19.4695 10.3633-11.0423 9.8801-10.7512 11.6243-14.0453 11.4283-14.9164 17.0484-24.2146 11.3332-18.2104 13.3664-26.4436 5.3271-12.9802 4.165-12.2043 2.7122-9.2012 1.8409-8.4273 2.4211-13.0754.6789-8.9121.6772-10.6543.8711-11.5271-462.8009-.052h462.8466v-935.01714l-5.2631-1.05226z"/>
  <path fill="#193f6e" d="m950.04422 136.743456-816.25099 159.27723h-4.6831v861.86604h.031l-.2656 7.8063 2.8849 14.2697 1.4424 17.1226 7.2105 24.9724 14.4226 32.1047 11.5376 22.8309 16.5852 21.4036 28.1231 34.2465 47.5932 47.8034 38.218 34.959 117.5413 84.9024 98.0694 65.6386 116.8192 69.9198 109.6072 62.7842 204.79329 102.7392 24.5177-11.4157 118.2618-57.0754 131.2399-71.3472 112.4936-65.6384 139.8929-88.471 102.848-77.7668 11.8986-9.8111 10.0953-8.5614 12.4386-9.9882 6.7609-5.9748 7.9323-7.3128 11.9874-11.4154 10.9978-10.524 17.9375-17.926 9.6439-10.1672 9.1943-9.8988 10.8175-12.9318 10.6351-13.7339 15.8649-22.2951 10.5465-16.767 12.4386-24.3474 4.9573-11.9512 3.8761-11.2369 2.5238-8.4717 1.7131-7.7592 2.253-12.0392.6319-8.2054.6302-9.8098.8106-10.6133-430.6764-.049h430.7189v-860.89722l-4.8977-.96883z"/>
  <g fill="#fff">
    <path d="M324.43333 1068.846766c-17.7081-3.2768-34.0755-9.6634-46.3695-18.0936-7.9198-5.4307-18.8523-15.7872-23.4086-22.1753-4.8878-6.8526-12.2538-21.714-14.4991-29.2529-4.9298-16.5517-4.8554-14.2929-4.8519-147.38 0-135.93103-.1257-132.55103 5.7631-150.70503 7.5599-23.3051 28.3426-44.14861 54.4513-54.61046 9.8778-3.95807 12.9247-4.82122 28.131-7.96904 9.3048-1.92618 13.386-1.97085 180.0682-1.97085h170.5476v118.26028h-128.2382c-89.622 0-129.8825.3279-133.6987 1.0888-3.6294.7237-6.5695 2.0974-8.7676 4.0966-6.6731 6.069-6.482 3.2785-6.482 94.6856 0 95.3704-.3883 90.9464 8.4593 96.3763 3.749 2.3008 6.8234 3.2612 12.4293 3.8828 4.0966.4541 58.4547.9016 120.7959.9944 62.3412.093 118.4483.4448 124.6824.7824l11.3348.6137.2948 53.7099c.1621 29.5404.025 55.1511-.3043 56.9127l-.5991 3.2029-168.6867-.081-168.6868-.081zM739.18263 853.992766v-217.30318h447.90774l.6785 25.86942c.3731 14.22823.6794 39.50633.6805 56.17363v30.3042h-142.1635c-139.4983 0-142.1835.036-143.2302 1.9062-.6524 1.166-1.0667 11.33223-1.0667 26.18063 0 14.8483.4143 25.0146 1.0667 26.1806 1.0449 1.8672 3.4342 1.9062 116.9542 1.9062h115.8874v101.5067h-115.2487c-110.3426 0-115.3214.077-116.9542 1.8022-1.4804 1.5644-1.7054 4.7241-1.7054 23.9477 0 15.9102.3482 22.4784 1.2366 23.3281.9496.9082 33.8211 1.1826 141.6845 1.1826h140.4481v114.3182H739.18263ZM1319.31657 1070.612966c-21.2208-3.6146-35.8657-8.3632-47.8814-15.5257-20.876-12.4441-32.7111-29.3706-40.1437-57.4134l-2.6531-10.01v-110.5118h77.7977c42.7888 0 77.8489.1108 77.9113.2464.062.1355.4333 14.2159.824 31.2897.6838 29.8785.8007 31.214 3.1162 35.5928 1.813 3.4284 3.7911 5.3106 8.0274 7.6377l5.6216 3.0881 25.4105-.023 25.4106-.023 5.1167-2.6871c3.5024-1.8393 6.0925-4.2007 8.2092-7.4843l3.0923-4.7972.3072-144.5064c.1688-79.47853.5716-147.72156.8949-151.65124l.588-7.1449h182.2108l-.019 168.76724c-.02 177.232-.044 178.2382-4.4737 193.4047-7.9633 27.26-25.5185 47.5298-51.6661 59.6551-11.4981 5.332-16.178 6.8777-30.3977 10.0393-9.7695 2.1722-10.0245 2.1769-127.2585 2.3362-64.6082.088-118.6286-.038-120.0454-.2792z"/>
  </g>
  <g fill="#fff">
    <path d="M1459.059391 1250.200026c-8.9251-3.4469-12.9353-6.9026-16.7454-14.4301-2.6788-5.2923-2.9254-8.5566-2.9035-38.444.022-31.2993.1611-32.8929 3.3121-38.2354 2.2508-3.8163 5.8059-6.8938 11.2698-9.756l7.9815-4.1811 43.7151-.4269c28.8352-.2814 45.9479.1037 50.2751 1.1327 9.5754 2.2761 15.7241 6.7407 20.1422 14.625 3.9033 6.9658 3.9048 6.9805 3.9049 38.327l.0003 31.3584-4.1856 7.9c-3.7115 7.0056-5.1345 8.3072-12.5689 11.4981l-8.3834 3.5982-44.2639-.076c-40.9187-.07-44.8147-.2888-51.5503-2.89zm84.7911-26.545c3.2284-2.9006 3.3719-3.9001 3.3528-23.3447-.022-23.5255-.4357-25.7019-5.2725-27.8097-4.6424-2.023-56.7636-2.1064-62.7801-.1001-6.4988 2.1667-7.7045 6.2999-7.7045 26.4111 0 18.9667 1.1825 23.8468 6.3595 26.2442 1.8098.8381 15.5767 1.4809 32.8923 1.5358 28.6393.091 29.9089-.022 33.1525-2.9361zM1324.263591 1213.723826c0-28.8188-.471-39.8924-1.7487-41.1144-1.2208-1.1675-9.1123-1.6724-26.1413-1.6724h-24.3925l-.9206-5.9232c-.5063-3.2579-.7104-9.0592-.4536-12.892l.4671-6.9684 67.9201-.3622 67.9203-.362.8019 12.2087c.4739 7.2157.2112 12.8934-.6424 13.8833-1.0746 1.2462-7.7542 1.4581-26.0975.8278l-24.6532-.8471v82.664h-32.0596zM1124.619991 1198.795426v-54.3705l58.6544.3642 58.6544.3643v23.693l-42.2603.6968-42.2603.6969-.4278 8.4911-.428 8.4912 20.8294.9113c11.4563.5012 27.2232.9137 35.0377.9164h14.2082v19.512h-33.2253c-23.899 0-33.7163.4694-34.9741 1.6724-.9618.9198-1.7487 5.2092-1.7487 9.5319v7.8596l42.4226.9345c23.3326.514 43.0054 1.2791 43.7176 1.6999.7122.421 1.2949 5.7458 1.2949 11.833v11.0674h-119.4947zM961.407791 1198.811226v-54.3547l46.9964.02c52.7095.023 61.4151 1.0501 71.1037 8.3891 10.079 7.6346 14.2542 27.2071 9.4706 44.3966-2.4043 8.6395-7.8358 14.8068-15.7266 17.8568-3.3001 1.2757-5.4647 3.0492-5.4647 4.4773 0 1.3008 3.4734 6.4068 7.7186 11.3468 4.2452 4.9401 9.8507 11.961 12.4566 15.602l4.7381 6.6202h-37.5788l-11.2861-16.2069-11.2861-16.2069-7.5187.8639c-4.1354.4752-12.9289.8694-19.5411.8761l-12.0224.012v30.6616h-32.0595zm93.1584-5.066c4.3382-5.2746 4.2546-17.8877-.1483-22.37-3.1054-3.1613-3.7443-3.2257-32.0596-3.2257h-28.891v13.7049c0 7.5376.4372 14.123.9715 14.6339.5343.5111 13.602.9291 29.0393.9291h28.0678zM821.829891 1250.084726c-8.3124-3.1324-14.6825-9.541-17.5781-17.684-1.0855-3.0528-1.6845-16.3365-1.6845-37.3541 0-31.2587.1365-32.8465 3.2788-38.1403 2.1618-3.6419 5.5128-6.5849 9.8364-8.6384 6.4054-3.0422 7.7251-3.1145 56.8329-3.1145h50.2752l.4174 12.7764.4174 12.7765-40.7625.4637-40.7624.4638-4.4655 4.0935c-4.4557 4.0845-4.4654 4.127-4.4654 19.5211 0 17.1924 1.3256 23.3681 6.0482 28.1758l3.2033 3.2611h81.0981v26.4806l-46.9964-.091c-44.044-.085-47.4799-.2727-54.6929-2.9908zM330.324191 1250.641726c-11.9205-4.0519-18.3249-11.4881-20.7645-24.1098-1.4671-7.59-1.4491-52.2614.024-60.3532 1.5175-8.3347 6.0694-14.7148 12.8519-18.0136l5.0653-2.4638 51.264-.2814 51.2641-.2813v25.4037l-7.8837.6374c-4.3361.3506-22.4301.6374-40.209.6374h-32.3253l-4.0996 2.5946-4.0997 2.5948v41.2617l3.349 3.858 3.3489 3.858 40.3342.018c35.818.015 40.4043.1923 40.9597 1.5766.344.8574.6255 6.8442.6255 13.3042v11.7455l-47.1423-.073c-43.3117-.065-47.5828-.2216-52.5629-1.9145zM487.218391 1252.908226c-6.3187-.8386-16.3567-6.1655-20.0935-10.6631-5.9459-7.1567-6.4932-10.4883-6.9561-42.3412-.5152-35.4494-.072-38.1819 7.3969-45.5894 3.7649-3.734 6.9557-5.8011 11.4092-7.3912 6.0588-2.1633 7.0905-2.2075 51.5217-2.2075 44.2882 0 45.4823.051 51.5216 2.1871 4.6604 1.6486 7.455 3.5056 11.3504 7.5425 8.0998 8.3939 8.7431 11.8712 8.7431 47.2632 0 27.1696-.1393 29.3873-2.1247 33.838-3.0237 6.7779-7.5721 10.8882-16.2941 14.7246l-7.5993 3.3425-42.892-.1476c-23.5905-.081-44.283-.3323-45.9832-.5579m75.8692-28.4322c5.0716-2.5083 6.0502-6.3103 6.0502-23.5065 0-18.019-1.136-24.3716-4.8593-27.1726-2.4976-1.879-4.148-1.9798-32.3957-1.9798h-29.7641l-4.0336 2.4353c-5.2238 3.1538-5.6847 5.9715-4.6945 28.7021.7149 16.412.877 17.4003 3.3064 20.1616l2.5546 2.9036h30.3573c25.541 0 30.8526-.245 33.4787-1.5437M633.409891 1199.201526c.54-40.2004 1.0276-53.6183 1.9695-54.2007.6885-.4256 8.8774-.6639 18.1976-.5295l16.9458.2445 11.7239 13.3042c6.4482 7.3174 14.6565 16.6304 18.2407 20.6956 3.5842 4.0651 12.1597 13.9325 19.0567 21.9274s13.1409 14.5362 13.8755 14.5362c1.0534 0 1.4706-6.8155 1.9757-32.2753.3521-17.7513.9319-33.7164 1.2886-35.478l.6484-3.2028h30.6791v108.4052h-36.6578l-4.7075-4.6812c-2.5892-2.5746-13.3897-14.4376-24.0013-26.3621-10.6116-11.9246-21.5752-24.2014-24.3635-27.2818-2.7884-3.0803-5.0697-6.0486-5.0697-6.5962 0-1.2321-4.1089-4.0639-5.8967-4.0639-1.0431 0-1.3164 7.1596-1.3164 34.4926v34.4926h-33.3063z"/>
  </g>
  <path fill="#fff" d="M348.15832 1380.066526c-4.996-3.6245-13.2569-9.9271-18.3575-14.0059-8.9767-7.1782-37.6007-30.6004-40.6653-33.2752-1.2592-1.0991 105.5994-1.317 645.8504-1.317h647.3592l-7.436 6.1593c-4.09 3.3877-10.4776 8.7033-14.195 11.8124-10.8318 9.0594-36.592 29.0154-42.9713 33.2892l-5.8618 3.9271H357.24182z"/>
  <path fill="#d8282c" d="m937.5724 1702.546326-1.8689-1.0797-20.0432-8.2963-20.0433-8.2962-11.7285-5.105-11.7285-5.1051-29.2799-14.0305-29.2798-14.0305-11.2136-5.7695-11.2135-5.7695-13.7055-6.9228-13.7054-6.9227-11.8366-6.6246-11.8365-6.6246-6.1611-2.8603-6.1611-2.8602-4.1471-2.6952-4.1472-2.6952 1.7378-1.3793 1.7379-1.3795 6.7014-1.8404 6.7015-1.8405 23.0501-7.0154 23.0501-7.0155 21.8042-6.5449 21.8041-6.545 18.6893-5.506 18.6892-5.506 25.542-7.7507 25.542-7.7508 21.1812-6.4088 21.18122-6.4086 22.4271-6.653 22.4271-6.6529 3.7379-1.0536 3.7378-1.0535 22.4271-6.7779 22.4271-6.778 8.7217-2.7097 8.7217-2.7098 10.5905-3.064 10.5906-3.0641 9.3446-2.5789 9.3447-2.5788 4.3608-1.5276 4.3608-1.5275 13.7055-3.745 13.7055-3.7449 13.7054-4.0612 13.7055-4.0611 13.0825-3.7464 13.0824-3.7466 3.7379-1.0898 3.7378-1.0899 11.2136-2.9982 11.2136-2.9982 3.7378-1.0841 3.7379-1.0843 22.4271-5.3764 22.4271-5.3765 9.9676-1.9542 9.9676-1.9541 6.8527-1.1583 6.8528-1.1582 11.8365-1.825 11.8365-1.8248 47.692-.6429 47.6922-.643 19.2665.8637 19.2666.8635-.9999 1.7088-1 1.7088-11.9227 7.9971-11.9228 7.9971-18.5264 12.5323-18.5263 12.5323-10.9194 6.2357-10.9194 6.2358h-1.0959l-17.8125 9.8952-17.8125 9.8951-11.2135 6.0453-11.2136 6.0452-14.3284 6.9316-14.3284 6.9317-5.9539 3.3329-5.9538 3.3327-10.8666 5.5335-10.8664 5.5336-8.0987 4.1574-8.0987 4.1576-21.1811 10.6997-21.1812 10.6997-6.2298 3.3057-6.2297 3.3055-13.7055 6.863-13.7054 6.863-9.9676 5.0469-9.9676 5.047-12.4596 6.2645-12.4595 6.2646-9.9676 5.065-9.9676 5.065-34.6879 16.9077-34.6879 16.9077-4.0153 2.1569-4.0154 2.1571-42.4529 20.4028-42.453 20.403-1.6996-.07-1.6995-.07zm36.54982-1267.34511-.7507-1.87075 2.7669-9.15175 2.7667-9.15175 2.2853-3.57487 2.2855-3.57487 2.6797-6.55392 2.6797-6.55392 9.7309-20.85339 9.7309-20.85339 7.7565-16.68271 7.7566-16.68271 3.6833-8.93717 3.6834-8.93716 3.8432-8.04345 3.8432-8.04345h2.3266l5.8165-4.42767 5.8165-4.42767 6.5431-5.77031 6.5431-5.77031 1.2441.73532 1.2441.73534-.015 12.73961-.015 12.73961-2.5632 9.53298-2.5633 9.53297-1.0571 3.57487-1.0571 3.57487-2.4786 7.94923-2.4785 7.94921-2.4494 6.94606-2.4494 6.94605-5.8071 17.87434-5.8071 17.87433-1.3727 4.76649-1.3727 4.76649-1.0685 3.57486-1.0685 3.57487-5.0794 16.0869-5.0792 16.0869-2.5435 2.08534-2.5434 2.08534h-44.6564z"/>
  <g fill="#fff">
    <path d="M542.54399 520.0197654c-1.1527-1.10246-1.7487-7.01293-1.7487-17.34236 0-21.06896-1.8697-20.00907 35.2983-20.00907h28.8208v39.02387h-30.3108c-21.6321 0-30.8116-.47885-32.0596-1.67244M658.12269 543.9061654c-11.2962-5.4781-14.6247-8.56544-20.1928-18.72968-4.2006-7.66772-4.5818-9.46437-4.5901-21.63181-.01-12.198.3784-14.02216 4.7883-22.58929 5.6834-11.0412 13.5146-17.97523 24.9608-22.10118 11.6427-4.19678 31.2411-3.33281 41.6473 1.83595 9.6974 4.81671 17.1823 12.49254 22.111 22.67503 3.3917 7.00688 4.0363 10.16943 3.9771 19.51194-.1199 18.91705-9.5102 32.98806-27.5453 41.27556-7.7581 3.565-10.3038 4.01596-22.5875 4.00127-12.5126-.015-14.6829-.42344-22.5688-4.24779M759.38319 502.3270754c0-12.18036-3.4329-24.77678-9.4952-34.84081-2.0286-3.36762-3.509-6.28567-3.2899-6.48458.9654-.87631 64.05066-1.30256 145.20846-.98115l87.9772.34843-2.3639 3.13585c-8.6976 11.53802-12.9018 23.0797-14.7226 40.41759l-.988 9.40755H759.38319ZM1022.53675 541.9991754c-8.9696-3.60029-19.9098-12.56426-23.6549-19.38185-1.1943-2.17409-3.0764-8.08973-4.1825-13.14589-2.3221-10.61462-1.0194-19.28236 4.4472-29.59052 4.3308-8.16655 9.5028-12.6348 20.956-18.10466 8.6126-4.11326 10.2651-4.42453 21.1301-3.98005 14.09.57642 24.9043 4.99333 34.3545 14.03151 7.4931 7.16642 10.2012 12.02956 12.4873 22.42483 2.8859 13.12299-1.1155 24.59261-12.9497 37.11886-12.2801 12.9984-35.1615 17.62258-52.588 10.62777m31.4771-23.18876c18.5565-11.63363 9.1742-38.9295-13.381-38.9295-9.4023 0-16.3093 4.18731-20.2795 12.29418-3.9408 8.04692-3.4596 13.92864 1.735 21.20592 7.1442 10.00856 20.8921 12.3466 31.9255 5.4294M1158.05005 543.1847354c-21.6067-7.5696-34.1185-25.76094-31.977-46.49234 1.6959-16.41633 9.8376-26.7262 28.0825-35.56067 7.1057-3.44066 9.0917-3.76507 20.4016-3.33252 15.0964.57736 26.0308 5.15017 35.2919 14.75924 6.5272 6.77238 9.2592 12.12859 11.67 22.87961 1.4299 6.37694 1.2164 8.47174-1.8028 17.67875-4.4842 13.67478-15.1171 24.82881-27.9482 29.31784-9.9103 3.46718-25.004 3.80295-33.718.75009m26.9859-23.31061c7.6761-3.83867 11.5197-10.20993 11.5152-19.08757-.013-21.90111-31.0708-28.62235-42.9184-9.28744-4.2867 6.99566-4.6045 12.37667-1.0947 18.52728 2.5146 4.40657 9.3957 10.58344 13.4185 12.04519 4.8761 1.77179 13.0172.83413 19.0794-2.19746M1254.36315 502.6448454c-.5343-.51103-.9715-3.5487-.9715-6.75036 0-8.95961-7.5157-27.39135-15.4803-37.96452l-2.3622-3.13584h64.4746v48.77986h-22.3445c-12.2896 0-22.7817-.41812-23.3161-.92914M1188.66395 423.7840754c22.1474-25.18532 39.9524-37.07628 65.4564-43.71446 10.0904-2.62634 15.847-2.41538 18.7838.68836 2.0154 2.12987 2.643 6.67671 3.3663 24.38992l.889 21.77202h-91.2531zM1249.76795 341.5551654c-.4205-1.7247-2.7147-11.04396-5.0981-20.70944-2.3833-9.66547-7.3366-30.98924-11.0074-47.38614-3.6707-16.3969-7.2213-32.16443-7.89-35.03896l-1.2161-5.22642h47.9409l3.5117 7.33603c7.194 15.02856 22.3632 69.02364 20.2918 72.22907-1.1174 1.72912-21.0885 16.12296-32.7083 23.57397-5.2096 3.34061-9.6907 6.58772-9.9579 7.2158-.9441 2.21942-3.1117 1.10163-3.8666-1.99391M1026.06035 431.2676954c0-.76772.5738-1.73501 1.2751-2.14954.7013-.41452 1.2751-2.22986 1.2751-4.03406s1.0112-5.42185 2.2472-8.03924c2.6124-5.53244 4.4786-11.48514 6.9537-22.18026.9757-4.21599 5.7084-19.58163 10.5173-34.1459 4.8089-14.56428 10.9489-33.37937 13.6444-41.81131 2.6955-8.43195 7.8685-23.70592 11.4956-33.94214 6.1123-17.24975 17.3261-52.00685 20.9747-65.01129 2.8943-10.31519-.6998-10.26737 52.0328-.69221 26.3433 4.78338 48.3694 9.10409 48.9471 9.60159s3.3359 11.23981 6.1293 23.87179c2.7934 12.63199 7.0877 31.12044 9.5429 41.08547s5.7378 24.38993 7.2948 32.05534 3.8108 18.30247 5.0084 23.63792c1.1976 5.33546 2.0424 9.7721 1.8771 9.85919-.1654.0871-7.1861 3.95855-15.6017 8.60324-48.8757 26.97499-103.3898 48.8659-147.9112 59.39578-16.7273 3.95623-35.7026 6.02668-35.7026 3.89563M972.90935 408.3222954c-2.025-4.37929-3.6819-8.48537-3.6819-9.12463s-2.0057-5.79553-4.4572-11.45837c-6.8482-15.8194-20.987-61.02414-25.8879-82.76901-3.9138-17.36512-8.6315-53.08177-7.1932-54.45738.3015-.28833 9.0349-2.79576 19.4075-5.57206 10.3727-2.7763 40.8275-11.57253 67.6774-19.5472 26.8499-7.97466 49.264-14.49926 49.8091-14.49909 1.8288.00054-3.6778 13.89538-15.4652 39.02417-2.6969 5.74906-7.3454 16.09735-10.3301 22.99622-2.9848 6.89887-5.9847 13.79773-6.6664 15.33081-.6818 1.53308-4.2852 9.99987-8.0077 18.8151-3.7224 8.81521-12.3531 27.94388-19.1793 42.50815s-15.8794 34.14534-20.1182 43.5135c-4.2389 9.36816-8.7236 18.42108-9.966 20.11758-2.2223 3.03438-2.3189 2.95504-5.9409-4.87779M847.00705 426.5714854c-3.1804-5.55741-11.1499-20.10545-17.71-32.32897l-11.9275-22.22457.8557-20.28358c.4707-11.15598 1.2712-27.07936 1.779-35.38527.9207-15.05999.9359-15.10903 5.4894-17.75758 11.1172-6.46622 75.0832-36.73727 75.9293-35.93252.5169.49154 1.8598 7.59789 2.9844 15.79187 2.746 20.00764 11.5292 60.91103 16.7676 78.08669 7.8117 25.61264 22.0319 64.02942 27.485 74.25231l3.1397 5.88603h-99.0101zM796.69895 434.4713354c-.4865-1.2125-.8845-8.08295-.8845-15.26766v-13.0631l5.1683-.9273c2.8426-.51003 5.4782-.63097 5.8569-.26875.6325.60487 6.4618 28.28505 6.4618 30.68333 0 .57642-3.5365 1.04804-7.859 1.04804-5.822 0-8.0882-.57139-8.7435-2.20456M560.71109 466.4083754c-.5343-.51102-.9715-18.36446-.9715-39.6743v-38.74516l12.1414-20.60366c6.6778-11.33201 19.8975-33.61743 29.3773-49.52316l17.2358-28.91948h146.7181v137.54372l-20.7659.90855c-11.4212.4997-34.6576.91084-51.6364.91364-30.2522.005-31.0549.0802-40.0744 3.75436-13.7701 5.60934-26.0369 14.55189-34.8446 25.40198l-7.8761 9.70246-24.1661.0851c-13.2914.0468-24.6033-.33301-25.1376-.84404zm87.1923-89.5966c18.4342-1.49619 39.7465-3.14847 47.3607-3.67173 22.2134-1.52656 20.4015.98685 20.4015-28.30054 0-13.75401-.398-25.99934-.8845-27.21185-.7757-1.93312-5.6146-2.20455-39.3022-2.20455h-38.4177l-3.3224 4.27768c-5.8279 7.50346-32.7932 57.66802-32.0443 59.61305.5179 1.3448 2.403 1.6384 6.7062 1.04446 3.2922-.4544 21.0684-2.05033 39.5027-3.54652"/>
  </g>
</svg>
